<svg viewBox="0 0 1200 630" xmlns="http://www.w3.org/2000/svg"><ellipse cx="649" cy="245.814" fill="none" rx="159" ry="158.892"/><path d="m956 113.3v-113.3h-123v42.315a274.253 274.253 0 0 1 54.12 341.405h312.88v-383.72h-60.1z" fill="none"/><path d="m69 179.823a116.52 116.52 0 0 1 -69-22.5v85.333l122.847-75.934a116.572 116.572 0 0 1 -53.847 13.101z" fill="none"/><path d="m786 0h-15.581q7.934 3.9 15.581 8.269z" fill="none"/><path d="m1200 605.651v-30.061h-18.569z" fill="none"/><path d="m306 368.7c-104.382 0-189 84.561-189 188.872a188.185 188.185 0 0 0 14.407 72.428h349.186a188.185 188.185 0 0 0 14.407-72.428c0-104.311-84.618-188.872-189-188.872z" fill="#00b3ba"/><path d="m122.847 166.725 14.86-9.186a116.9 116.9 0 0 0 29.934-157.539h-167.641v157.326a117.135 117.135 0 0 0 122.847 9.4z" fill="#f18c94"/><path d="m374.978 10.878-237.271 146.661-14.86 9.186-122.847 75.934v81.485h374.978z" fill="#e51a2f"/><path d="m375 246.313c0 151.5 122.9 274.314 274.5 274.314a273.943 273.943 0 0 0 208.5-95.9v-41h29.12a274.252 274.252 0 0 0 -54.12-341.412v59.717h-47v-93.763q-7.637-4.383-15.581-8.269h-241.838c-90.965 44.681-153.581 138.183-153.581 246.313zm274-159.391c87.813 0 159 71.138 159 158.892s-71.187 158.892-159 158.892-159-71.139-159-158.892 71.187-158.892 159-158.892z" fill="#f18c94"/><path d="m1081.25 575.59v54.41h118.75v-24.349l-18.569-30.061z" fill="#f18c94"/><path d="m962.364 575.59 33.61 54.41h85.276v-54.41z" fill="#00b3ba"/><path d="m858 383.72v191.87h342v-191.87z" fill="#4f4898"/><path d="m786 102.032h47v-102.032h-47z" fill="#4f4898"/><path d="m1139.9 0h-183.9v113.3z" fill="#e51a2f"/><path d="m0 630h117.986l-117.986-152.067z" fill="#4f4898"/><path d="m956 239.958 205-126.3h-205z" fill="#e51a2f"/><path d="m956 366.629 205-126.3h-205z" fill="#e51a2f"/><path d="m418.062 396.709a23.169 23.169 0 0 0 9.308 1.8 23.5 23.5 0 0 0 9.354-1.8 21.566 21.566 0 0 0 7.189-4.931 22.179 22.179 0 0 0 4.608-7.188 23.964 23.964 0 0 0 0-17.28 22.057 22.057 0 0 0 -4.608-7.235 21.563 21.563 0 0 0 -7.189-4.93 23.522 23.522 0 0 0 -9.354-1.8 23.169 23.169 0 0 0 -9.308 1.8 21.19 21.19 0 0 0 -7.1 4.93 22.415 22.415 0 0 0 -4.561 7.235 23.943 23.943 0 0 0 0 17.28 22.547 22.547 0 0 0 4.561 7.188 21.193 21.193 0 0 0 7.1 4.931zm-2.35-26.036a12.483 12.483 0 0 1 6.5-7.28 11.777 11.777 0 0 1 5.161-1.106 12.087 12.087 0 0 1 5.207 1.106 12.444 12.444 0 0 1 4.009 2.949 13.3 13.3 0 0 1 2.58 4.331 15.432 15.432 0 0 1 0 10.507 13.286 13.286 0 0 1 -2.58 4.331 12.473 12.473 0 0 1 -4.009 2.95 12.087 12.087 0 0 1 -5.207 1.106 11.777 11.777 0 0 1 -5.161-1.106 12.485 12.485 0 0 1 -6.5-7.281 16.191 16.191 0 0 1 0-10.507z" fill="#1d1d1b"/><path d="m461.9 354.453v42.947h10.046v-22.211a16.118 16.118 0 0 1 2.534-9.262q2.535-3.732 7.788-3.732a8.991 8.991 0 0 1 4.469 1.014 7.824 7.824 0 0 1 2.857 2.718 11.987 11.987 0 0 1 1.521 4.1 27.323 27.323 0 0 1 .461 5.161v22.212h10.044v-25.528a37.888 37.888 0 0 0 -.6-7.373 15.21 15.21 0 0 0 -2.165-5.346 12.872 12.872 0 0 0 -5.023-4.239 17.758 17.758 0 0 0 -7.88-1.566 18.529 18.529 0 0 0 -8.387 1.8 13.173 13.173 0 0 0 -5.621 5.3v-5.991z" fill="#1d1d1b"/><path d="m367.589 366.388a10.379 10.379 0 0 1 8.663-4.1q5.161 0 7.419 2.166a9.25 9.25 0 0 1 2.718 5.668h10.046a20.6 20.6 0 0 0 -1.521-6.129 15.742 15.742 0 0 0 -3.686-5.345 18.661 18.661 0 0 0 -6.175-3.825 24.473 24.473 0 0 0 -8.985-1.474 21.174 21.174 0 0 0 -9.216 1.889 20.261 20.261 0 0 0 -6.682 5.022 21.293 21.293 0 0 0 -4.1 7.235 26.539 26.539 0 0 0 0 16.911 21.362 21.362 0 0 0 4.1 7.189 20.142 20.142 0 0 0 6.728 5.023 21.5 21.5 0 0 0 9.262 1.889 25.774 25.774 0 0 0 8.248-1.2 18.231 18.231 0 0 0 6.083-3.364 16.4 16.4 0 0 0 4.009-5.069 21.431 21.431 0 0 0 2.027-6.221h-10.045a11.013 11.013 0 0 1 -3.088 5.069q-2.073 1.844-6.5 1.844a12.683 12.683 0 0 1 -5.53-1.106 10.666 10.666 0 0 1 -3.778-2.95 11.957 11.957 0 0 1 -2.166-4.331 19.543 19.543 0 0 1 -.691-5.253 19.044 19.044 0 0 1 .691-5.207 12.469 12.469 0 0 1 2.169-4.331z" fill="#1d1d1b"/><path d="m557.362 395.787a7.1 7.1 0 0 0 2.165-5.207 7.4 7.4 0 0 0 -7.324-7.465h-.141a7.1 7.1 0 0 0 -5.206 2.166 7.206 7.206 0 0 0 -2.166 5.3 7.4 7.4 0 0 0 7.372 7.373 7.211 7.211 0 0 0 5.3-2.167z" fill="#1d1d1b"/><path d="m624.623 332.888v42.947a23.946 23.946 0 0 0 1.659 8.893 22.571 22.571 0 0 0 4.7 7.373 22.219 22.219 0 0 0 7.281 5.022 23.572 23.572 0 0 0 9.492 1.844 24.134 24.134 0 0 0 9.631-1.844 22.08 22.08 0 0 0 7.327-5.022 22.571 22.571 0 0 0 4.7-7.373 23.946 23.946 0 0 0 1.659-8.893v-42.947h-10.6v42.947a15.013 15.013 0 0 1 -.921 5.253 13.323 13.323 0 0 1 -2.581 4.331 12.444 12.444 0 0 1 -4.009 2.949 12.058 12.058 0 0 1 -5.207 1.106 11.76 11.76 0 0 1 -5.161-1.106 12.483 12.483 0 0 1 -6.5-7.28 15.706 15.706 0 0 1 -.876-5.253v-42.947z" fill="#1d1d1b"/><path d="m610.553 342.381v-9.493h-37.232v64.512h37.232v-9.493h-26.634v-17.786h26.634v-9.493h-26.634v-18.247z" fill="#1d1d1b"/><path d="m530.436 344.131a4.792 4.792 0 0 1 1.612-2.027 4.454 4.454 0 0 1 2.166-.737q1.2-.093 2.4-.092a13.954 13.954 0 0 1 2.3.184 21.286 21.286 0 0 1 2.12.461v-8.479a8.668 8.668 0 0 0 -2.35-.783 16.778 16.778 0 0 0 -3.456-.323 38.766 38.766 0 0 0 -4.516.323 11.759 11.759 0 0 0 -5.115 1.935 12.6 12.6 0 0 0 -4.147 4.976q-1.706 3.364-1.705 9.539v5.345h-8.755v8.387h8.755v34.56h10.045v-34.56h11.244v-8.387h-11.244v-6.453a9.353 9.353 0 0 1 .646-3.869z" fill="#1d1d1b"/><path d="m393.149 177.482a54.365 54.365 0 0 1 18.317-13.482 58.275 58.275 0 0 1 24.768-5.069 52.248 52.248 0 0 1 18.086 3 46.571 46.571 0 0 1 14.285 8.179 45.144 45.144 0 0 1 10.137 12.326 46.813 46.813 0 0 1 5.415 15.437h27.878a76.339 76.339 0 0 0 -7.718-24.538 64.539 64.539 0 0 0 -15.783-19.814 75.467 75.467 0 0 0 -23.846-13.363q-13.94-4.954-31.91-4.954-19.124 0-34.215 7.027a80.431 80.431 0 0 0 -25.805 18.778 81.917 81.917 0 0 0 -16.358 26.956 91.6 91.6 0 0 0 .23 63.936 79.961 79.961 0 0 0 43.431 45.5q15.667 6.912 35.481 6.912a87.6 87.6 0 0 0 27.648-4.263 76.562 76.562 0 0 0 22.81-11.861 72.666 72.666 0 0 0 16.589-17.741 67.629 67.629 0 0 0 9.446-21.888h-29.03a39.676 39.676 0 0 1 -6.567 12.787 48.63 48.63 0 0 1 -10.483 10.138 50.933 50.933 0 0 1 -13.017 6.681 42.6 42.6 0 0 1 -13.94 2.42 66.432 66.432 0 0 1 -26.15-4.839 54.321 54.321 0 0 1 -19.123-13.247 57.684 57.684 0 0 1 -11.751-19.469 68.073 68.073 0 0 1 -4.032-23.5 66.843 66.843 0 0 1 3.917-22.695 59.432 59.432 0 0 1 11.29-19.354z" fill="#1d1d1b"/><path d="m745.622 274.019a25.9 25.9 0 0 1 -8.409 4.839 30.6 30.6 0 0 1 -10.368 1.728q-13.824 0-22.579-8.525t-8.756-24.423h-26.5a59.315 59.315 0 0 0 4.608 24.077 54.5 54.5 0 0 0 12.212 17.741 51.908 51.908 0 0 0 17.625 11.059 58.952 58.952 0 0 0 21.082 3.8 69.151 69.151 0 0 0 21.312-3.226 51.106 51.106 0 0 0 17.625-9.677 45.775 45.775 0 0 0 11.981-15.9 51.538 51.538 0 0 0 4.378-21.888q0-11.52-5.069-19.584a48.829 48.829 0 0 0 -13.133-13.824 84.607 84.607 0 0 0 -17.856-9.677q-9.792-3.916-19.238-7.373a74.812 74.812 0 0 1 -8.755-3.686 39.179 39.179 0 0 1 -7.488-4.839 20.831 20.831 0 0 1 -5.3-6.566 18.6 18.6 0 0 1 -1.958-8.64q0-10.368 7.142-15.437a28.694 28.694 0 0 1 17.05-5.069q11.289 0 17.741 7.373t6.451 19.354h26.5a51.906 51.906 0 0 0 -3.92-20.5 47.888 47.888 0 0 0 -10.829-15.9 48.72 48.72 0 0 0 -16.358-10.367 55.27 55.27 0 0 0 -20.275-3.687 59.073 59.073 0 0 0 -19.238 3.111 47.5 47.5 0 0 0 -15.9 8.985 44.224 44.224 0 0 0 -10.829 14.055 40.336 40.336 0 0 0 -4.032 18.086q0 12.212 4.147 20.275a40.879 40.879 0 0 0 11.4 13.709 73.355 73.355 0 0 0 16.944 9.677q9.678 4.032 20.736 7.948 4.147 1.383 8.64 3.341a40.484 40.484 0 0 1 8.3 4.839 23.728 23.728 0 0 1 6.221 7.027 20.307 20.307 0 0 1 2.419 10.368 22.353 22.353 0 0 1 -7.719 17.395z" fill="#1d1d1b"/><path d="m610.685 274.019a25.917 25.917 0 0 1 -8.41 4.839 30.6 30.6 0 0 1 -10.368 1.728q-13.824 0-22.579-8.525t-8.755-24.423h-26.5a59.315 59.315 0 0 0 4.608 24.077 54.5 54.5 0 0 0 12.219 17.741 51.922 51.922 0 0 0 17.626 11.059 58.947 58.947 0 0 0 21.081 3.8 69.121 69.121 0 0 0 21.312-3.226 51.12 51.12 0 0 0 17.626-9.677 45.8 45.8 0 0 0 11.981-15.9 51.553 51.553 0 0 0 4.377-21.888q0-11.52-5.069-19.584a48.8 48.8 0 0 0 -13.134-13.819 84.7 84.7 0 0 0 -17.856-9.677q-9.792-3.917-19.239-7.373a74.812 74.812 0 0 1 -8.755-3.686 39.1 39.1 0 0 1 -7.488-4.839 20.831 20.831 0 0 1 -5.3-6.566 18.584 18.584 0 0 1 -1.959-8.64q0-10.368 7.143-15.437a28.693 28.693 0 0 1 17.049-5.069q11.291 0 17.741 7.373t6.451 19.354h26.5a51.935 51.935 0 0 0 -3.916-20.506 47.888 47.888 0 0 0 -10.829-15.9 48.708 48.708 0 0 0 -16.359-10.367 55.251 55.251 0 0 0 -20.283-3.688 59.073 59.073 0 0 0 -19.238 3.111 47.52 47.52 0 0 0 -15.9 8.985 44.224 44.224 0 0 0 -10.829 14.055 40.336 40.336 0 0 0 -4.032 18.086q0 12.212 4.148 20.275a40.868 40.868 0 0 0 11.4 13.709 73.411 73.411 0 0 0 16.935 9.677q9.677 4.032 20.736 7.948 4.147 1.383 8.64 3.341a40.414 40.414 0 0 1 8.294 4.839 23.728 23.728 0 0 1 6.221 7.027 20.307 20.307 0 0 1 2.419 10.368 22.353 22.353 0 0 1 -7.718 17.4z" fill="#1d1d1b"/><path d="m915.014 442.3h17.986v5.562h-4.158c-1.675 8.478-7.939 14.31-18.415 14.31-12.366 0-19.44-9.558-19.44-19.819s7.506-19.818 19.44-19.818c8.91 0 15.5 5.562 16.093 12.258h-6.265c-.647-3.726-4.59-6.7-9.828-6.7-8.1 0-13.067 6.858-13.067 14.256s4.536 14.257 13.877 14.257c6.426 0 10.26-4.1 11.016-8.748h-7.235z" fill="#fff"/><path d="m942.175 450.453c.27 3.619 1.836 6.535 6.75 6.535 3.349 0 4.644-1.513 5.347-3.294h5.939c-.7 4.319-4.859 8.208-11.286 8.208-8.478 0-12.582-5.832-12.582-13.23 0-7.56 4.482-13.231 12.42-13.231a11.347 11.347 0 0 1 11.661 11.023v.317a20.521 20.521 0 0 1 -.271 3.672zm0-4.374h12.525a5.811 5.811 0 0 0 -5.39-6.2 6.005 6.005 0 0 0 -.71-.006c-3.617 0-6.425 2.1-6.425 6.206z" fill="#fff"/><path d="m980.731 461.254a28.46 28.46 0 0 1 -4.374.324c-2.863 0-8.155-.379-8.155-8.857v-11.721h-4.265v-4.914h4.263v-7.614h5.887v7.614h5.777v4.914h-5.777v10.368c0 4.374 1.35 4.914 3.672 4.914a22.522 22.522 0 0 0 2.97-.215z" fill="#fff"/><path d="m1005.192 429.015h-9.341v-5.562h24.949v5.562h-9.4v32.239h-6.21z" fill="#fff"/><path d="m1028.2 422.535a4.347 4.347 0 1 1 -4.32 4.374 4.347 4.347 0 0 1 4.32-4.374zm-2.916 13.554h5.886v25.165h-5.886z" fill="#fff"/><path d="m1055.844 445.269c-.324-2.754-1.944-4.59-5.94-4.59-4.536 0-6.751 3.727-6.751 7.993 0 4.319 2.053 7.992 7.129 7.992 3.456 0 4.86-1.512 5.617-4.05h5.885c-.81 5.238-4.644 9.288-11.934 9.288-8.208 0-12.582-6.372-12.582-13.23 0-6.805 4.374-13.231 12.528-13.231 8.208 0 11.557 4.968 11.935 9.828z" fill="#fff"/><path d="m1079.874 448.672 10.476 12.582h-7.344l-9.234-11.071v11.071h-5.886v-37.8h5.886v23.761l9.234-11.125h7.344z" fill="#fff"/><path d="m1097.532 450.453c.27 3.619 1.836 6.535 6.75 6.535 3.348 0 4.644-1.513 5.346-3.294h5.94c-.7 4.319-4.86 8.208-11.286 8.208-8.478 0-12.582-5.832-12.582-13.23 0-7.56 4.482-13.231 12.42-13.231a11.345 11.345 0 0 1 11.659 11.022c0 .105.005.211.005.316a20.808 20.808 0 0 1 -.269 3.672zm0-4.374h12.529a5.811 5.811 0 0 0 -5.39-6.2 6.005 6.005 0 0 0 -.71-.006c-3.621 0-6.429 2.1-6.429 6.206z" fill="#fff"/><path d="m1136.088 461.254a28.483 28.483 0 0 1 -4.375.324c-2.861 0-8.153-.379-8.153-8.857v-11.721h-4.267v-4.914h4.267v-7.614h5.885v7.614h5.779v4.914h-5.779v10.368c0 4.374 1.35 4.914 3.672 4.914a22.537 22.537 0 0 0 2.971-.215z" fill="#fff"/><path d="m1159.416 454.234c0 5.237-4.536 7.668-10.045 7.668-5.4 0-10.26-3.186-10.26-9.126h5.724c0 3.294 2.053 4.482 4.86 4.482 2.323 0 4.105-.756 4.105-2.916 0-2.376-2.538-2.539-7.83-4.59-3.511-1.35-5.994-2.647-5.994-7.021 0-4.752 4.319-7.29 9.45-7.29 5.346 0 9.611 3.618 9.611 8.532h-5.723c0-2.376-1.189-3.888-4.05-3.888-2 0-3.618.972-3.618 2.755 0 2.159 2.322 2.429 6.912 4.212 3.509 1.348 6.858 2.591 6.858 7.182z" fill="#fff"/><path d="m914.636 515.145v-26.892h6.21v37.8h-6.8l-14.958-26.892v26.892h-6.21v-37.8h6.8z" fill="#fff"/><path d="m926.839 513.471a13.284 13.284 0 1 1 13.338 13.23h-.109a12.914 12.914 0 0 1 -13.229-12.589c-.005-.212-.005-.427 0-.641zm20.682 0c0-4.32-2.916-7.992-7.453-7.992-4.427 0-7.343 3.672-7.343 7.992s2.916 7.993 7.343 7.993c4.537 0 7.453-3.673 7.453-7.993z" fill="#fff"/><path d="m975.816 507.261-6.642 18.792h-3.942l-9.774-25.164h6.317l5.455 15.93 5.67-15.93h5.778l5.671 15.93 5.454-15.93h6.317l-9.773 25.164h-3.947z" fill="#fff"/><path d="m1047.96 507.153-12.636 11.664-3.24-3.51 6.48-5.778h-28.405v-4.806h28.3l-6.375-5.723 3.24-3.51z" fill="#fff"/><g fill="#1d1d1b"><path d="m361.228 445.512v7.547h9.825v3.5h-9.825v9.247h-3.91v-23.8h13.735v3.5z"/><path d="m386.21 453.4a5.406 5.406 0 0 0 -1.461-.169c-3.162 0-4.9 1.8-4.9 5.746v6.833h-3.706v-15.845h3.706v2.55a5.719 5.719 0 0 1 4.9-2.753 3.765 3.765 0 0 1 1.461.237z"/><path d="m392.011 441.432a2.737 2.737 0 1 1 -2.72 2.754 2.743 2.743 0 0 1 2.72-2.754zm-1.836 8.533h3.706v15.843h-3.706z"/><path d="m411.7 463.666a5.95 5.95 0 0 1 -4.895 2.55 8.332 8.332 0 0 1 0-16.658 5.949 5.949 0 0 1 4.895 2.549v-10.1h3.7v23.8h-3.7zm0-5.779a4.671 4.671 0 1 0 -4.7 5.031 4.741 4.741 0 0 0 4.7-5.031z"/><path d="m437.069 449.965v15.843h-3.705v-2.142a5.952 5.952 0 0 1 -4.9 2.55 8.332 8.332 0 0 1 0-16.658 5.951 5.951 0 0 1 4.9 2.549v-2.142zm-3.705 7.922a4.671 4.671 0 1 0 -4.692 5.031 4.741 4.741 0 0 0 4.692-5.031z"/><path d="m444.748 472.505a6.264 6.264 0 0 1 -2.142-4.9h3.74a3.5 3.5 0 0 0 3.739 3.4c2.278 0 3.876-.816 3.876-3.774v-3.631a5.633 5.633 0 0 1 -5.168 2.618 5.386 5.386 0 0 1 -4.759-2.142c-.782-1.19-1.02-2.516-1.02-4.692v-9.417h3.706v8.193c0 2.72.782 4.794 3.433 4.794 2.584 0 3.808-2.074 3.808-4.794v-8.193h3.706v17.27a6.59 6.59 0 0 1 -1.972 5.2 8.392 8.392 0 0 1 -5.677 1.7 8.2 8.2 0 0 1 -5.27-1.632z"/><path d="m465.93 460.538c1.835 0 3.093 1.428 3.093 3.5 0 4.182-2.107 5.677-5.677 5.711v-1.733a4.014 4.014 0 0 0 2.482-.68 2.374 2.374 0 0 0 .816-1.53 1.376 1.376 0 0 1 -.714.2 2.624 2.624 0 0 1 -2.72-2.72 2.735 2.735 0 0 1 2.72-2.748z"/><path d="m507.78 465.808h-3.909v-14.721l-5.95 14.721h-2.957l-5.949-14.721v14.721h-3.91v-23.8h3.739l7.615 17.713 7.582-17.713h3.739z"/><path d="m529.738 449.965v15.843h-3.705v-2.142a5.952 5.952 0 0 1 -4.9 2.55 8.332 8.332 0 0 1 0-16.658 5.951 5.951 0 0 1 4.9 2.549v-2.142zm-3.705 7.922a4.671 4.671 0 1 0 -4.692 5.031 4.741 4.741 0 0 0 4.692-5.031z"/><path d="m537.417 472.505a6.264 6.264 0 0 1 -2.142-4.9h3.74a3.5 3.5 0 0 0 3.739 3.4c2.278 0 3.876-.816 3.876-3.774v-3.631a5.633 5.633 0 0 1 -5.168 2.618 5.386 5.386 0 0 1 -4.759-2.142c-.782-1.19-1.02-2.516-1.02-4.692v-9.417h3.706v8.193c0 2.72.782 4.794 3.433 4.794 2.584 0 3.808-2.074 3.808-4.794v-8.193h3.706v17.27a6.59 6.59 0 0 1 -1.972 5.2 8.392 8.392 0 0 1 -5.677 1.7 8.2 8.2 0 0 1 -5.27-1.632z"/><path d="m569.308 457.853c0 3.093 2.04 4.861 4.555 4.861a3.741 3.741 0 0 0 3.978-3.706c0-2.243-1.054-3.944-4.283-3.944h-1.6v-3.464h1.632c2.822 0 3.672-1.428 3.672-3.468 0-2-1.394-3.025-3.366-3.025-2.821 0-3.773 1.6-3.773 3.943h-3.91a7.113 7.113 0 0 1 7.411-7.445c4.08 0 7.548 2.584 7.548 6.527a5.283 5.283 0 0 1 -3.23 5.236 5.66 5.66 0 0 1 3.807 5.61c0 4.317-3.671 7.241-8.057 7.241a8.047 8.047 0 0 1 -8.295-8.363z"/><path d="m585.452 445.953c4.317 0 5.235-1.088 5.235-3.943h3.706v23.8h-4.046v-16.763h-4.895z"/><path d="m612.32 461.388c0 3.3-2.855 4.828-6.324 4.828-3.4 0-6.459-2.006-6.459-5.746h3.6c0 2.074 1.292 2.822 3.06 2.822 1.461 0 2.583-.476 2.583-1.836 0-1.5-1.6-1.6-4.929-2.89-2.21-.849-3.774-1.666-3.774-4.42 0-2.991 2.72-4.588 5.949-4.588 3.366 0 6.052 2.277 6.052 5.371h-3.6a2.224 2.224 0 0 0 -2.55-2.449c-1.258 0-2.279.613-2.279 1.735 0 1.359 1.463 1.529 4.353 2.651 2.21.851 4.318 1.634 4.318 4.522z"/><path d="m626.339 465.808a18.054 18.054 0 0 1 -2.754.2c-1.8 0-5.134-.239-5.134-5.575v-7.378h-2.685v-3.094h2.685v-4.793h3.706v4.793h3.638v3.094h-3.638v6.527c0 2.754.85 3.094 2.312 3.094a14.11 14.11 0 0 0 1.87-.136z"/><path d="m646.534 453.807c2.074-1.292 4.692-2.55 4.692-5.44 0-2.311-1.5-3.263-3.434-3.263-2.04 0-3.705 1.19-3.705 3.943h-3.91c0-4.827 3.672-7.445 7.649-7.445 4.113 0 7.31 2.379 7.31 7.139 0 4.386-4.863 6.833-6.392 7.921-3.468 2.483-4.08 3.366-4.08 5.644h10.336v3.5h-14.823c0-7.545 2.723-9.688 6.357-11.999z"/><path d="m659.5 449.932a8.364 8.364 0 0 1 16.727 0v7.955a8.364 8.364 0 0 1 -16.727 0zm12.816 0a4.543 4.543 0 0 0 -4.487-4.828c-2.685 0-4.42 2.209-4.42 4.828v7.955c0 2.617 1.735 4.827 4.42 4.827a4.544 4.544 0 0 0 4.487-4.827z"/><path d="m680.045 445.953c4.318 0 5.236-1.088 5.236-3.943h3.705v23.8h-4.046v-16.763h-4.9z"/><path d="m710.62 449.932a9.372 9.372 0 0 1 -1.529 4.928l-6.8 10.948h-4.491l5-7.547c-5.405 0-8.906-3.5-8.906-8.329a8.363 8.363 0 0 1 16.725 0zm-12.816 0a4.544 4.544 0 0 0 4.487 4.827c2.686 0 4.42-2.21 4.42-4.827s-1.734-4.828-4.42-4.828a4.543 4.543 0 0 0 -4.491 4.828z"/><path d="m357.318 488.01h8.125c6.528 0 7.65 3.943 7.65 6.426a5.379 5.379 0 0 1 -4.182 5.269c1.53 0 4.385 1.768 4.385 5.371 0 2.482-1.291 6.732-7.818 6.732h-8.16zm8.125 10c3.2 0 3.74-2.073 3.74-3.23 0-1.189-.544-3.263-3.74-3.263h-4.215v6.493zm-4.215 3.5v6.8h4.419c3.2 0 3.74-1.972 3.74-3.366a3.388 3.388 0 0 0 -3.706-3.433z"/><path d="m381.5 505.008c.17 2.278 1.156 4.114 4.249 4.114 2.108 0 2.924-.952 3.366-2.074h3.739c-.441 2.72-3.059 5.168-7.105 5.168-5.337 0-7.921-3.672-7.921-8.329 0-4.76 2.822-8.329 7.819-8.329a7.142 7.142 0 0 1 7.344 7.138 13 13 0 0 1 -.17 2.312zm0-2.753h7.887a3.659 3.659 0 0 0 -3.842-3.91 3.711 3.711 0 0 0 -4.045 3.91z"/><path d="m408.218 499.4a5.413 5.413 0 0 0 -1.462-.169c-3.162 0-4.9 1.8-4.9 5.746v6.833h-3.705v-15.845h3.705v2.55a5.719 5.719 0 0 1 4.9-2.753 3.771 3.771 0 0 1 1.462.237z"/><path d="m412.183 488.01h3.706v23.8h-3.706z"/><path d="m423.7 487.432a2.737 2.737 0 1 1 -2.72 2.754 2.743 2.743 0 0 1 2.72-2.754zm-1.836 8.533h3.706v15.843h-3.706z"/><path d="m431.5 495.965h3.7v2.21a5.636 5.636 0 0 1 5.168-2.617 5.381 5.381 0 0 1 4.759 2.141c.782 1.19 1.02 2.516 1.02 4.692v9.417h-3.7v-8.194c0-2.719-.782-4.793-3.434-4.793-2.584 0-3.808 2.074-3.808 4.793v8.194h-3.7z"/><path d="m454.3 506.538c1.836 0 3.093 1.428 3.093 3.5 0 4.182-2.107 5.677-5.677 5.711v-1.733a4.012 4.012 0 0 0 2.482-.68 2.365 2.365 0 0 0 .816-1.53 1.369 1.369 0 0 1 -.714.2 2.624 2.624 0 0 1 -2.72-2.72 2.735 2.735 0 0 1 2.72-2.748z"/><path d="m487.418 499.875h11.321v3.5h-2.618c-1.054 5.337-5 9.009-11.593 9.009-7.785 0-12.238-6.018-12.238-12.477s4.725-12.477 12.238-12.477c5.61 0 9.757 3.5 10.131 7.717h-3.943c-.408-2.345-2.89-4.215-6.188-4.215-5.1 0-8.227 4.317-8.227 8.975s2.856 8.975 8.737 8.975a6.614 6.614 0 0 0 6.936-5.507h-4.556z"/><path d="m506.085 505.008c.17 2.278 1.156 4.114 4.249 4.114 2.108 0 2.924-.952 3.366-2.074h3.739c-.441 2.72-3.059 5.168-7.1 5.168-5.337 0-7.921-3.672-7.921-8.329 0-4.76 2.822-8.329 7.819-8.329a7.142 7.142 0 0 1 7.344 7.138 13 13 0 0 1 -.17 2.312zm0-2.753h7.887a3.659 3.659 0 0 0 -3.842-3.91 3.711 3.711 0 0 0 -4.045 3.91z"/><path d="m532.8 499.4a5.409 5.409 0 0 0 -1.462-.169c-3.161 0-4.9 1.8-4.9 5.746v6.833h-3.706v-15.845h3.706v2.55a5.717 5.717 0 0 1 4.9-2.753 3.767 3.767 0 0 1 1.462.238z"/><path d="m556.756 511.808v-8.873c0-2.516-.884-4.114-2.958-4.114-1.87 0-3.331 1.156-3.331 4.929v8.058h-3.706v-8.908c0-2.515-.816-4.079-2.89-4.079-1.87 0-3.4 1.156-3.4 4.929v8.058h-3.706v-15.843h3.706v2.21a4.818 4.818 0 0 1 4.419-2.617c2.89 0 4.317 1.257 5 2.821a5.318 5.318 0 0 1 4.861-2.821c4.76 0 5.711 3.263 5.711 6.22v10.03z"/><path d="m581.991 495.965v15.843h-3.705v-2.142a5.952 5.952 0 0 1 -4.9 2.55 8.332 8.332 0 0 1 0-16.658 5.951 5.951 0 0 1 4.9 2.549v-2.142zm-3.705 7.922a4.671 4.671 0 1 0 -4.692 5.031 4.741 4.741 0 0 0 4.692-5.031z"/><path d="m587.957 495.965h3.705v2.21a5.636 5.636 0 0 1 5.168-2.617 5.383 5.383 0 0 1 4.759 2.141c.782 1.19 1.02 2.516 1.02 4.692v9.417h-3.709v-8.194c0-2.719-.782-4.793-3.433-4.793-2.584 0-3.808 2.074-3.808 4.793v8.194h-3.705z"/><path d="m610.059 518.505a6.268 6.268 0 0 1 -2.142-4.9h3.74a3.5 3.5 0 0 0 3.739 3.4c2.278 0 3.876-.816 3.876-3.774v-3.631a5.634 5.634 0 0 1 -5.168 2.618 5.386 5.386 0 0 1 -4.759-2.142c-.782-1.19-1.02-2.516-1.02-4.692v-9.417h3.706v8.193c0 2.72.781 4.794 3.434 4.794 2.583 0 3.807-2.074 3.807-4.794v-8.193h3.706v17.27a6.59 6.59 0 0 1 -1.972 5.2 8.393 8.393 0 0 1 -5.678 1.7 8.2 8.2 0 0 1 -5.269-1.632z"/></g></svg>