<svg id="Ebene_1" data-name="Ebene 1" xmlns="http://www.w3.org/2000/svg" viewBox="0 0 1200 630"><defs><style>.cls-1{fill:none;}.cls-2{fill:#00b3ba;}.cls-3{fill:#f18c94;}.cls-4{fill:#e51a2f;}.cls-5{fill:#4f4898;}.cls-6{fill:#1d1d1b;}.cls-7{fill:#fff;}</style></defs><title>cssconf-eu-banner</title><ellipse class="cls-1" cx="649" cy="245.814" rx="159" ry="158.892"/><path class="cls-1" d="M956,113.3V0H833V42.315A274.252,274.252,0,0,1,887.12,383.72H1200V0h-60.1Z"/><path class="cls-1" d="M858,575.59V424.722a273.945,273.945,0,0,1-208.5,95.9c-151.6,0-274.5-122.815-274.5-274.314C375,138.183,437.616,44.681,528.581,0H167.641a116.9,116.9,0,0,1-29.934,157.539L374.978,10.878V324.144H0V477.933L117.986,630h13.421A188.184,188.184,0,0,1,117,557.572C117,453.261,201.618,368.7,306,368.7s189,84.561,189,188.872A188.184,188.184,0,0,1,480.593,630H995.974l-33.61-54.41Z"/><path class="cls-1" d="M69,179.823a116.517,116.517,0,0,1-69-22.5v85.333l122.847-75.934A116.56,116.56,0,0,1,69,179.823Z"/><path class="cls-1" d="M786,0H770.419Q778.353,3.9,786,8.269Z"/><polygon class="cls-1" points="1200 605.651 1200 575.59 1181.431 575.59 1200 605.651"/><path class="cls-2" d="M306,368.7c-104.382,0-189,84.561-189,188.872A188.184,188.184,0,0,0,131.407,630H480.593A188.184,188.184,0,0,0,495,557.572C495,453.261,410.382,368.7,306,368.7Z"/><path class="cls-3" d="M122.847,166.725l14.86-9.186A116.9,116.9,0,0,0,167.641,0H0V157.326a117.136,117.136,0,0,0,122.847,9.4Z"/><polygon class="cls-4" points="374.978 10.878 137.707 157.539 122.847 166.725 0 242.659 0 324.144 374.978 324.144 374.978 10.878"/><path class="cls-3" d="M375,246.313c0,151.5,122.9,274.314,274.5,274.314a273.945,273.945,0,0,0,208.5-95.9v-41h29.12A274.252,274.252,0,0,0,833,42.315v59.717H786V8.269Q778.363,3.886,770.419,0H528.581C437.616,44.681,375,138.183,375,246.313ZM649,86.922c87.813,0,159,71.138,159,158.892S736.813,404.706,649,404.706,490,333.567,490,245.814,561.187,86.922,649,86.922Z"/><polygon class="cls-3" points="1081.25 575.59 1081.25 630 1200 630 1200 605.651 1181.431 575.59 1081.25 575.59"/><polygon class="cls-2" points="962.364 575.59 995.974 630 1081.25 630 1081.25 575.59 962.364 575.59"/><polygon class="cls-5" points="858 383.72 858 424.722 858 575.59 962.364 575.59 1081.25 575.59 1181.431 575.59 1200 575.59 1200 383.72 887.12 383.72 858 383.72"/><polygon class="cls-5" points="786 102.032 833 102.032 833 42.315 833 0 786 0 786 8.269 786 102.032"/><polygon class="cls-4" points="1139.899 0 956 0 956 113.3 1139.899 0"/><polygon class="cls-5" points="0 630 117.986 630 0 477.933 0 630"/><polygon class="cls-4" points="956 239.958 1161 113.658 956 113.658 956 239.958"/><polygon class="cls-4" points="956 366.629 1161 240.329 956 240.329 956 366.629"/><path class="cls-6" d="M418.062,396.709a23.172,23.172,0,0,0,9.308,1.8,23.5,23.5,0,0,0,9.354-1.8,21.566,21.566,0,0,0,7.189-4.931,22.179,22.179,0,0,0,4.608-7.188,23.964,23.964,0,0,0,0-17.28,22.057,22.057,0,0,0-4.608-7.235,21.563,21.563,0,0,0-7.189-4.93,23.519,23.519,0,0,0-9.354-1.8,23.172,23.172,0,0,0-9.308,1.8,21.19,21.19,0,0,0-7.1,4.93,22.415,22.415,0,0,0-4.561,7.235,23.943,23.943,0,0,0,0,17.28,22.547,22.547,0,0,0,4.561,7.188A21.193,21.193,0,0,0,418.062,396.709Zm-2.35-26.036a12.483,12.483,0,0,1,6.5-7.28,11.777,11.777,0,0,1,5.161-1.106,12.087,12.087,0,0,1,5.207,1.106,12.444,12.444,0,0,1,4.009,2.949,13.3,13.3,0,0,1,2.58,4.331,15.432,15.432,0,0,1,0,10.507,13.286,13.286,0,0,1-2.58,4.331,12.473,12.473,0,0,1-4.009,2.95,12.087,12.087,0,0,1-5.207,1.106,11.777,11.777,0,0,1-5.161-1.106,12.485,12.485,0,0,1-6.5-7.281A16.191,16.191,0,0,1,415.712,370.673Z"/><path class="cls-6" d="M461.9,354.453V397.4h10.046V375.189a16.118,16.118,0,0,1,2.534-9.262q2.535-3.732,7.788-3.732a8.991,8.991,0,0,1,4.469,1.014,7.824,7.824,0,0,1,2.857,2.718,11.987,11.987,0,0,1,1.521,4.1,27.323,27.323,0,0,1,.461,5.161V397.4H501.62V371.872a37.888,37.888,0,0,0-.6-7.373,15.21,15.21,0,0,0-2.165-5.346,12.872,12.872,0,0,0-5.023-4.239,17.758,17.758,0,0,0-7.88-1.566,18.529,18.529,0,0,0-8.387,1.8,13.173,13.173,0,0,0-5.621,5.3v-5.991Z"/><path class="cls-6" d="M367.589,366.388a10.379,10.379,0,0,1,8.663-4.1q5.161,0,7.419,2.166a9.25,9.25,0,0,1,2.718,5.668h10.046a20.6,20.6,0,0,0-1.521-6.129,15.742,15.742,0,0,0-3.686-5.345,18.661,18.661,0,0,0-6.175-3.825,24.473,24.473,0,0,0-8.985-1.474,21.177,21.177,0,0,0-9.216,1.889,20.261,20.261,0,0,0-6.682,5.022,21.293,21.293,0,0,0-4.1,7.235,26.539,26.539,0,0,0,0,16.911,21.362,21.362,0,0,0,4.1,7.189,20.142,20.142,0,0,0,6.728,5.023,21.5,21.5,0,0,0,9.262,1.889,25.774,25.774,0,0,0,8.248-1.2,18.231,18.231,0,0,0,6.083-3.364,16.39,16.39,0,0,0,4.009-5.069,21.431,21.431,0,0,0,2.027-6.221H386.482a11.013,11.013,0,0,1-3.088,5.069q-2.073,1.844-6.5,1.844a12.683,12.683,0,0,1-5.53-1.106,10.666,10.666,0,0,1-3.778-2.95,11.957,11.957,0,0,1-2.166-4.331,19.543,19.543,0,0,1-.691-5.253,19.044,19.044,0,0,1,.691-5.207A12.477,12.477,0,0,1,367.589,366.388Z"/><path class="cls-6" d="M557.362,395.787a7.1,7.1,0,0,0,2.165-5.207,7.4,7.4,0,0,0-7.324-7.465h-.141a7.1,7.1,0,0,0-5.206,2.166,7.206,7.206,0,0,0-2.166,5.3,7.4,7.4,0,0,0,7.372,7.373A7.211,7.211,0,0,0,557.362,395.787Z"/><path class="cls-6" d="M624.623,332.888v42.947a23.946,23.946,0,0,0,1.659,8.893,22.571,22.571,0,0,0,4.7,7.373,22.219,22.219,0,0,0,7.281,5.022,23.572,23.572,0,0,0,9.492,1.844,24.134,24.134,0,0,0,9.631-1.844,22.08,22.08,0,0,0,7.327-5.022,22.571,22.571,0,0,0,4.7-7.373,23.946,23.946,0,0,0,1.659-8.893V332.888h-10.6v42.947a15.013,15.013,0,0,1-.921,5.253,13.323,13.323,0,0,1-2.581,4.331,12.444,12.444,0,0,1-4.009,2.949,12.058,12.058,0,0,1-5.207,1.106,11.76,11.76,0,0,1-5.161-1.106,12.483,12.483,0,0,1-6.5-7.28,15.706,15.706,0,0,1-.876-5.253V332.888Z"/><polygon class="cls-6" points="610.553 342.381 610.553 332.888 573.321 332.888 573.321 397.4 610.553 397.4 610.553 387.907 583.919 387.907 583.919 370.121 610.553 370.121 610.553 360.628 583.919 360.628 583.919 342.381 610.553 342.381"/><path class="cls-6" d="M530.436,344.131a4.785,4.785,0,0,1,1.612-2.027,4.454,4.454,0,0,1,2.166-.737q1.2-.093,2.4-.092a13.954,13.954,0,0,1,2.3.184,21.286,21.286,0,0,1,2.12.461v-8.479a8.668,8.668,0,0,0-2.35-.783,16.778,16.778,0,0,0-3.456-.323,38.766,38.766,0,0,0-4.516.323,11.759,11.759,0,0,0-5.115,1.935,12.6,12.6,0,0,0-4.147,4.976q-1.706,3.364-1.705,9.539v5.345H510.99v8.387h8.755V397.4H529.79V362.84h11.244v-8.387H529.79V348A9.353,9.353,0,0,1,530.436,344.131Z"/><path class="cls-6" d="M397.158,520.4h2.958v-6.766a7.142,7.142,0,0,1,1.275-4.454,4.548,4.548,0,0,1,3.859-1.666,6.054,6.054,0,0,1,.7.034c.193.023.448.069.765.136v-2.72a3.855,3.855,0,0,0-1.462-.238,5.716,5.716,0,0,0-3.077.9,5.051,5.051,0,0,0-2.057,2.363v-3.026h-2.958Z"/><rect class="cls-6" x="411.104" y="496.6" width="2.958" height="23.8"/><polygon class="cls-6" points="370.014 455.388 370.014 452.6 356.652 452.6 356.652 476.4 359.746 476.4 359.746 466.676 370.014 466.676 370.014 463.888 359.746 463.888 359.746 455.388 370.014 455.388"/><path class="cls-6" d="M606.472,455.762v5.2h-2.856v2.482h2.856V471.2a7.4,7.4,0,0,0,.493,2.992,3.933,3.933,0,0,0,1.224,1.615,3.664,3.664,0,0,0,1.581.663,9.879,9.879,0,0,0,1.564.136q.749,0,1.479-.068t1.173-.136v-2.618a7.144,7.144,0,0,1-.935.1q-.6.034-1.071.034a4.817,4.817,0,0,1-1.037-.1,1.546,1.546,0,0,1-.8-.459,2.4,2.4,0,0,1-.527-1.02,6.787,6.787,0,0,1-.187-1.785v-7.106h4.012v-2.482H609.43v-5.2Z"/><path class="cls-6" d="M439.1,504.556a6.344,6.344,0,0,0-3.366.85,5.293,5.293,0,0,0-2.074,2.278v-2.72H430.7V520.4h2.958v-7.956a7.143,7.143,0,0,1,.272-1.972,5.165,5.165,0,0,1,.816-1.683,4.125,4.125,0,0,1,1.36-1.173,4,4,0,0,1,1.938-.442,3.923,3.923,0,0,1,1.836.391,3.3,3.3,0,0,1,1.207,1.054,4.441,4.441,0,0,1,.663,1.6,9.3,9.3,0,0,1,.2,1.989V520.4h2.958v-9.112a11.466,11.466,0,0,0-.272-2.72,5.6,5.6,0,0,0-.918-1.972,4.387,4.387,0,0,0-1.836-1.513A6.69,6.69,0,0,0,439.1,504.556Z"/><path class="cls-6" d="M652.084,476.162a8.317,8.317,0,0,0,3.332.646,8.53,8.53,0,0,0,3.383-.646,7.7,7.7,0,0,0,2.584-1.768,7.91,7.91,0,0,0,1.649-2.584,8.353,8.353,0,0,0,.578-3.094v-8.432a8.49,8.49,0,0,0-.578-3.111,7.706,7.706,0,0,0-1.649-2.584,7.828,7.828,0,0,0-2.584-1.751,8.53,8.53,0,0,0-3.383-.646,8.317,8.317,0,0,0-3.332.646,7.7,7.7,0,0,0-2.55,1.751,7.825,7.825,0,0,0-1.632,2.584,8.49,8.49,0,0,0-.578,3.111v8.432a8.353,8.353,0,0,0,.578,3.094,8.044,8.044,0,0,0,1.632,2.584A7.574,7.574,0,0,0,652.084,476.162Zm-1.666-15.878a5.915,5.915,0,0,1,.357-2.057,5.108,5.108,0,0,1,1-1.683,4.747,4.747,0,0,1,1.581-1.139,4.923,4.923,0,0,1,2.057-.425,5.128,5.128,0,0,1,2.108.425,4.888,4.888,0,0,1,1.615,1.139,4.96,4.96,0,0,1,1.02,1.683,5.915,5.915,0,0,1,.357,2.057v8.432a5.772,5.772,0,0,1-.357,2.04,5.2,5.2,0,0,1-1.02,1.683,4.781,4.781,0,0,1-1.615,1.156,5.128,5.128,0,0,1-2.108.425,4.923,4.923,0,0,1-2.057-.425,4.658,4.658,0,0,1-1.581-1.156,5.351,5.351,0,0,1-1-1.683,5.772,5.772,0,0,1-.357-2.04Z"/><path class="cls-6" d="M414.708,452.6h-2.924v11.016a5.383,5.383,0,0,0-2.227-2.244,6.487,6.487,0,0,0-3.179-.816,7.9,7.9,0,0,0-3.23.646,7.451,7.451,0,0,0-2.5,1.768,8.175,8.175,0,0,0-1.615,2.6,8.49,8.49,0,0,0-.578,3.111,8.353,8.353,0,0,0,.578,3.094,8.225,8.225,0,0,0,1.615,2.584,7.451,7.451,0,0,0,2.5,1.768,7.9,7.9,0,0,0,3.23.646,6.487,6.487,0,0,0,3.179-.816,5.383,5.383,0,0,0,2.227-2.244V476.4h2.924Zm-3.3,18.19a5.192,5.192,0,0,1-1.054,1.717,5.112,5.112,0,0,1-3.808,1.615,4.963,4.963,0,0,1-3.757-1.615,5.339,5.339,0,0,1-1.037-1.717,6.124,6.124,0,0,1,0-4.216,5.564,5.564,0,0,1,1.037-1.734,4.86,4.86,0,0,1,1.615-1.19,5.018,5.018,0,0,1,2.142-.442,5.127,5.127,0,0,1,2.159.442,5.013,5.013,0,0,1,1.649,1.19,5.4,5.4,0,0,1,1.054,1.734,6.124,6.124,0,0,1,0,4.216Z"/><path class="cls-6" d="M433.618,463.616a5.383,5.383,0,0,0-2.227-2.244,6.487,6.487,0,0,0-3.179-.816,7.9,7.9,0,0,0-3.23.646,7.451,7.451,0,0,0-2.5,1.768,8.175,8.175,0,0,0-1.615,2.6,8.49,8.49,0,0,0-.578,3.111,8.353,8.353,0,0,0,.578,3.094,8.225,8.225,0,0,0,1.615,2.584,7.451,7.451,0,0,0,2.5,1.768,7.9,7.9,0,0,0,3.23.646,6.487,6.487,0,0,0,3.179-.816,5.383,5.383,0,0,0,2.227-2.244V476.4h2.924V460.964h-2.924Zm-.374,7.174a5.192,5.192,0,0,1-1.054,1.717,5.112,5.112,0,0,1-3.808,1.615,4.963,4.963,0,0,1-3.757-1.615,5.339,5.339,0,0,1-1.037-1.717,6.124,6.124,0,0,1,0-4.216,5.564,5.564,0,0,1,1.037-1.734,4.86,4.86,0,0,1,1.615-1.19,5.018,5.018,0,0,1,2.142-.442,5.127,5.127,0,0,1,2.159.442,5.013,5.013,0,0,1,1.649,1.19,5.4,5.4,0,0,1,1.054,1.734,6.124,6.124,0,0,1,0,4.216Z"/><path class="cls-6" d="M452.466,522.593a3.574,3.574,0,0,1-1.53.289v1.462a7.623,7.623,0,0,0,2.125-.272,3.942,3.942,0,0,0,1.6-.884,3.988,3.988,0,0,0,1.02-1.581,6.871,6.871,0,0,0,.357-2.363,3.783,3.783,0,0,0-.782-2.482,2.55,2.55,0,0,0-2.074-.952,2.286,2.286,0,0,0-1.734.714,2.381,2.381,0,0,0-.68,1.7,2.43,2.43,0,0,0,.629,1.683,2.2,2.2,0,0,0,1.717.7,1.241,1.241,0,0,0,.459-.085.943.943,0,0,0,.323-.187,2.635,2.635,0,0,1-.51,1.5A2.145,2.145,0,0,1,452.466,522.593Z"/><path class="cls-6" d="M375.97,460.964V476.4h2.958v-6.766a7.142,7.142,0,0,1,1.275-4.454,4.55,4.55,0,0,1,3.859-1.666,6.054,6.054,0,0,1,.7.034c.193.023.448.069.765.136v-2.72a3.855,3.855,0,0,0-1.462-.238,5.716,5.716,0,0,0-3.077.9,5.051,5.051,0,0,0-2.057,2.363v-3.026Z"/><path class="cls-6" d="M393.792,455.116a2.438,2.438,0,0,0-2.414-2.414,2.212,2.212,0,0,0-1.666.714,2.381,2.381,0,0,0-.68,1.7,2.322,2.322,0,0,0,2.3,2.346h.048a2.381,2.381,0,0,0,1.7-.68A2.212,2.212,0,0,0,393.792,455.116Z"/><path class="cls-6" d="M356.652,520.4h8.16a8.663,8.663,0,0,0,3.57-.646,6.472,6.472,0,0,0,2.278-1.632,5.747,5.747,0,0,0,1.19-2.142,7.717,7.717,0,0,0,.34-2.176,5.741,5.741,0,0,0-.425-2.261,5.6,5.6,0,0,0-1.088-1.7,4.921,4.921,0,0,0-1.445-1.071,4.438,4.438,0,0,0-1.462-.442,5.072,5.072,0,0,0,1.581-.629,5.7,5.7,0,0,0,1.36-1.139,5.321,5.321,0,0,0,.952-1.6,5.5,5.5,0,0,0,.357-2.006,7.767,7.767,0,0,0-.323-2.142,5.364,5.364,0,0,0-1.139-2.057,6.144,6.144,0,0,0-2.227-1.547,8.951,8.951,0,0,0-3.553-.612h-8.126Zm3.094-21.012h5.032a4.684,4.684,0,0,1,1.989.374,3.685,3.685,0,0,1,1.275.935,3.455,3.455,0,0,1,.68,1.224,4.086,4.086,0,0,1,0,2.55,3.455,3.455,0,0,1-.68,1.224,3.552,3.552,0,0,1-1.258.918,4.649,4.649,0,0,1-1.938.357h-5.1Zm0,10.4h5.27a4.111,4.111,0,0,1,1.887.391,4.061,4.061,0,0,1,1.258.969,3.666,3.666,0,0,1,.714,1.258,4.173,4.173,0,0,1,.221,1.292,4.9,4.9,0,0,1-.2,1.377,3.269,3.269,0,0,1-.7,1.258,3.692,3.692,0,0,1-1.292.918,4.782,4.782,0,0,1-1.955.357h-5.2Z"/><path class="cls-6" d="M682.951,466.183a5.758,5.758,0,0,0-.731,1.683,7.288,7.288,0,0,0-.238,1.836,7.018,7.018,0,0,0,.544,2.754,6.37,6.37,0,0,0,1.581,2.244,7.713,7.713,0,0,0,2.516,1.513,10.283,10.283,0,0,0,6.7,0,7.553,7.553,0,0,0,2.516-1.53,6.542,6.542,0,0,0,1.581-2.261,6.924,6.924,0,0,0,.544-2.72,7.068,7.068,0,0,0-.238-1.819A6.016,6.016,0,0,0,697,466.2a5.663,5.663,0,0,0-1.224-1.377,4.6,4.6,0,0,0-1.751-.867,4.7,4.7,0,0,0,1.564-.85,4.881,4.881,0,0,0,1.054-1.224,5.554,5.554,0,0,0,.612-1.462,6.3,6.3,0,0,0,.2-1.6,6.4,6.4,0,0,0-.51-2.55,6.125,6.125,0,0,0-1.479-2.091,7.113,7.113,0,0,0-2.363-1.428,8.8,8.8,0,0,0-3.128-.527,9.053,9.053,0,0,0-3.128.51,6.911,6.911,0,0,0-2.363,1.411,6.09,6.09,0,0,0-1.479,2.11,6.52,6.52,0,0,0-.51,2.567,6.3,6.3,0,0,0,.2,1.6,5.554,5.554,0,0,0,.612,1.462,4.881,4.881,0,0,0,1.054,1.224,4.707,4.707,0,0,0,1.564.85,4.6,4.6,0,0,0-1.751.867A5.816,5.816,0,0,0,682.951,466.183Zm2.669-7.225a3.83,3.83,0,0,1,1.173-2.788,3.943,3.943,0,0,1,1.36-.85,5.056,5.056,0,0,1,1.819-.306,4.318,4.318,0,0,1,3.2,1.156,3.962,3.962,0,0,1,.017,5.576,4.3,4.3,0,0,1-3.213,1.156,4.356,4.356,0,0,1-3.2-1.139A3.783,3.783,0,0,1,685.62,458.958Zm-.221,9.078a3.8,3.8,0,0,1,.952-1.36,4.681,4.681,0,0,1,1.53-.918,6.552,6.552,0,0,1,4.165,0,4.484,4.484,0,0,1,1.547.935,3.96,3.96,0,0,1,.952,1.377,4.249,4.249,0,0,1,.323,1.632,4.116,4.116,0,0,1-.34,1.666,4.008,4.008,0,0,1-.969,1.36,4.681,4.681,0,0,1-1.53.918,6.341,6.341,0,0,1-4.1,0,4.635,4.635,0,0,1-1.547-.918,4.008,4.008,0,0,1-.969-1.36,4.116,4.116,0,0,1-.34-1.666,4.328,4.328,0,0,1,.327-1.666Z"/><path class="cls-6" d="M384.2,504.556a8.1,8.1,0,0,0-3.247.612,6.71,6.71,0,0,0-2.38,1.7,7.446,7.446,0,0,0-1.479,2.584,9.958,9.958,0,0,0-.51,3.23,10.2,10.2,0,0,0,.476,3.145,7.176,7.176,0,0,0,1.428,2.567,6.807,6.807,0,0,0,2.414,1.734,8.332,8.332,0,0,0,3.4.646,8.125,8.125,0,0,0,2.652-.408,7.206,7.206,0,0,0,2.074-1.088,5.778,5.778,0,0,0,2.176-3.434H388.21a4.036,4.036,0,0,1-1.275,1.717,4.1,4.1,0,0,1-2.635.731,5.365,5.365,0,0,1-2.176-.391,3.951,3.951,0,0,1-1.445-1.054,4.6,4.6,0,0,1-.85-1.53,6.561,6.561,0,0,1-.323-1.853h11.7a9.381,9.381,0,0,0,.119-1.122c.011-.317.016-.589.017-.816A6.855,6.855,0,0,0,387,505.083,7.455,7.455,0,0,0,384.2,504.556Zm4.284,6.664H379.54a4.353,4.353,0,0,1,1.326-3.247,4.68,4.68,0,0,1,3.264-1.139,4.35,4.35,0,0,1,3.111,1.173,4.211,4.211,0,0,1,1.241,3.213Z"/><rect class="cls-6" x="389.916" y="460.964" width="2.958" height="15.436"/><path class="cls-6" d="M675.924,476.4V452.6h-2.958a7.66,7.66,0,0,1-.187,1.836,2.2,2.2,0,0,1-.748,1.207,3.7,3.7,0,0,1-1.547.68,12.239,12.239,0,0,1-2.584.221v2.482h4.828V476.4Z"/><path class="cls-6" d="M454.4,480.208a3.439,3.439,0,0,1-.867,1.411,3.2,3.2,0,0,1-1.36.748,6.718,6.718,0,0,1-1.785.221,4.27,4.27,0,0,1-3.043-1.037,4.538,4.538,0,0,1-1.241-3.145H443.11a6.487,6.487,0,0,0,1.989,5.032,7.692,7.692,0,0,0,5.219,1.666,7.878,7.878,0,0,0,5.474-1.7q1.871-1.7,1.87-5.406V460.964H454.7v7.922a7.276,7.276,0,0,1-.272,2.006,5.354,5.354,0,0,1-.8,1.683,3.79,3.79,0,0,1-1.343,1.156,4.154,4.154,0,0,1-1.938.425,4.254,4.254,0,0,1-1.9-.374,3.1,3.1,0,0,1-1.207-1.054,4.4,4.4,0,0,1-.646-1.615,10.442,10.442,0,0,1-.187-2.057v-8.092H443.45v9.01a13.006,13.006,0,0,0,.255,2.839,5.371,5.371,0,0,0,.9,1.989,4.636,4.636,0,0,0,1.853,1.462,6.949,6.949,0,0,0,2.839.51,6.253,6.253,0,0,0,3.349-.85,5.318,5.318,0,0,0,2.057-2.278V478A6.821,6.821,0,0,1,454.4,480.208Z"/><path class="cls-6" d="M618.74,524.208a3.439,3.439,0,0,1-.867,1.411,3.19,3.19,0,0,1-1.36.748,6.718,6.718,0,0,1-1.785.221,4.27,4.27,0,0,1-3.043-1.037,4.538,4.538,0,0,1-1.241-3.145h-2.992a6.487,6.487,0,0,0,1.989,5.032,7.692,7.692,0,0,0,5.219,1.666,7.878,7.878,0,0,0,5.474-1.7Q622,525.7,622,522V504.964h-2.958v7.922a7.276,7.276,0,0,1-.272,2.006,5.354,5.354,0,0,1-.8,1.683,3.79,3.79,0,0,1-1.343,1.156,4.154,4.154,0,0,1-1.938.425,4.254,4.254,0,0,1-1.9-.374,3.1,3.1,0,0,1-1.207-1.054,4.4,4.4,0,0,1-.646-1.615,10.442,10.442,0,0,1-.187-2.057v-8.092h-2.958v9.01a13.006,13.006,0,0,0,.255,2.839,5.385,5.385,0,0,0,.9,1.989,4.644,4.644,0,0,0,1.853,1.462,6.969,6.969,0,0,0,2.839.51,6.253,6.253,0,0,0,3.349-.85,5.318,5.318,0,0,0,2.057-2.278V522A6.849,6.849,0,0,1,618.74,524.208Z"/><path class="cls-6" d="M540.182,505.491a4.781,4.781,0,0,0-1.632,2.227v-2.754h-2.958V520.4h2.958v-7.854a6.444,6.444,0,0,1,1.05-4.046,3.351,3.351,0,0,1,2.754-1.326,2.838,2.838,0,0,1,2.4,1.088,5.675,5.675,0,0,1,.833,3.434v8.7h2.958v-7.854a6.6,6.6,0,0,1,1.02-4.046,3.292,3.292,0,0,1,2.754-1.326,2.855,2.855,0,0,1,2.431,1.1,5.34,5.34,0,0,1,.833,3.247V520.4h2.958v-9.758a9.457,9.457,0,0,0-.289-2.38,5.132,5.132,0,0,0-.935-1.938,4.465,4.465,0,0,0-1.7-1.292,6.271,6.271,0,0,0-2.584-.476,5.3,5.3,0,0,0-1.717.272,5.584,5.584,0,0,0-1.428.714,5.14,5.14,0,0,0-1.105,1.054,4.718,4.718,0,0,0-.714,1.258,4.536,4.536,0,0,0-1.632-2.4,5.415,5.415,0,0,0-3.332-.9A4.584,4.584,0,0,0,540.182,505.491Z"/><path class="cls-6" d="M582.456,476.4V452.6H579.5a7.66,7.66,0,0,1-.187,1.836,2.2,2.2,0,0,1-.748,1.207,3.7,3.7,0,0,1-1.547.68,12.239,12.239,0,0,1-2.584.221v2.482h4.828V476.4Z"/><path class="cls-6" d="M560.055,468.342q.017-.476.017-.816a6.856,6.856,0,0,0-4.335-6.443,7.455,7.455,0,0,0-2.8-.527,8.1,8.1,0,0,0-3.247.612,6.71,6.71,0,0,0-2.38,1.7,7.446,7.446,0,0,0-1.479,2.584,9.958,9.958,0,0,0-.51,3.23,10.2,10.2,0,0,0,.476,3.145,7.176,7.176,0,0,0,1.428,2.567,6.8,6.8,0,0,0,2.414,1.734,8.332,8.332,0,0,0,3.4.646,8.125,8.125,0,0,0,2.652-.408,7.206,7.206,0,0,0,2.074-1.088,5.776,5.776,0,0,0,2.176-3.434h-2.992a4.038,4.038,0,0,1-1.275,1.717,4.1,4.1,0,0,1-2.635.731,5.365,5.365,0,0,1-2.176-.391,3.951,3.951,0,0,1-1.445-1.054,4.6,4.6,0,0,1-.85-1.53,6.561,6.561,0,0,1-.323-1.853h11.7A9.366,9.366,0,0,0,560.055,468.342Zm-11.781-1.122a4.353,4.353,0,0,1,1.326-3.247,4.68,4.68,0,0,1,3.264-1.139,4.35,4.35,0,0,1,3.111,1.173,4.211,4.211,0,0,1,1.241,3.213Z"/><path class="cls-6" d="M568.578,505.2a7.451,7.451,0,0,0-2.5,1.768,8.175,8.175,0,0,0-1.615,2.6,8.49,8.49,0,0,0-.578,3.111,8.353,8.353,0,0,0,.578,3.094,8.225,8.225,0,0,0,1.615,2.584,7.451,7.451,0,0,0,2.5,1.768,7.9,7.9,0,0,0,3.23.646,6.487,6.487,0,0,0,3.179-.816,5.383,5.383,0,0,0,2.227-2.244V520.4h2.924V504.964h-2.924v2.652a5.383,5.383,0,0,0-2.227-2.244,6.487,6.487,0,0,0-3.179-.816A7.9,7.9,0,0,0,568.578,505.2Zm5.559,2.448a5.013,5.013,0,0,1,1.649,1.19,5.4,5.4,0,0,1,1.054,1.734,6.124,6.124,0,0,1,0,4.216,5.192,5.192,0,0,1-1.054,1.717,5.112,5.112,0,0,1-3.808,1.615,4.963,4.963,0,0,1-3.757-1.615,5.339,5.339,0,0,1-1.037-1.717,6.124,6.124,0,0,1,0-4.216,5.564,5.564,0,0,1,1.037-1.734,4.86,4.86,0,0,1,1.615-1.19,5.018,5.018,0,0,1,2.142-.442,5.144,5.144,0,0,1,2.159.444Z"/><path class="cls-6" d="M586.978,520.4h2.958v-7.956a7.143,7.143,0,0,1,.272-1.972,5.145,5.145,0,0,1,.816-1.683,4.125,4.125,0,0,1,1.36-1.173,4,4,0,0,1,1.938-.442,3.923,3.923,0,0,1,1.836.391,3.3,3.3,0,0,1,1.207,1.054,4.441,4.441,0,0,1,.663,1.6,9.3,9.3,0,0,1,.2,1.989V520.4h2.958v-9.112a11.466,11.466,0,0,0-.272-2.72A5.612,5.612,0,0,0,600,506.6a4.387,4.387,0,0,0-1.836-1.513,6.686,6.686,0,0,0-2.788-.527,6.344,6.344,0,0,0-3.366.85,5.293,5.293,0,0,0-2.074,2.278v-2.72h-2.958Z"/><path class="cls-6" d="M637.917,462.426a9.56,9.56,0,0,1-1.632,1.156q-.9.51-1.819.952a22.465,22.465,0,0,0-2.805,1.717,8.523,8.523,0,0,0-2.108,2.21,10.055,10.055,0,0,0-1.326,3.213,20.559,20.559,0,0,0-.459,4.726h14.858v-2.788H631.3a9.506,9.506,0,0,1,.2-2.108,4.61,4.61,0,0,1,.748-1.649,6.587,6.587,0,0,1,1.5-1.462,25.924,25.924,0,0,1,2.448-1.547q.781-.408,1.887-1.037a11.23,11.23,0,0,0,2.108-1.564,9.13,9.13,0,0,0,1.717-2.193,5.829,5.829,0,0,0,.714-2.924,7.786,7.786,0,0,0-.527-2.958,5.78,5.78,0,0,0-1.5-2.159,6.675,6.675,0,0,0-2.3-1.326,8.912,8.912,0,0,0-2.924-.459,8.4,8.4,0,0,0-2.941.51,7.233,7.233,0,0,0-2.414,1.462,6.908,6.908,0,0,0-1.649,2.346,7.707,7.707,0,0,0-.612,3.128h3.094A4.66,4.66,0,0,1,638.393,456a3.574,3.574,0,0,1,1.139,2.856,4.475,4.475,0,0,1-.442,2.057A5.1,5.1,0,0,1,637.917,462.426Z"/><path class="cls-6" d="M596.793,473.9a4.2,4.2,0,0,1-2.261.527,4.4,4.4,0,0,1-2.6-.731,2.846,2.846,0,0,1-1.037-2.5H588a5.41,5.41,0,0,0,.527,2.448,5.184,5.184,0,0,0,1.394,1.751,5.8,5.8,0,0,0,2.023,1.037,8.625,8.625,0,0,0,2.448.34,9.426,9.426,0,0,0,2.4-.289,5.871,5.871,0,0,0,1.921-.867,4.1,4.1,0,0,0,1.275-1.445,4.264,4.264,0,0,0,.459-2.023,3.719,3.719,0,0,0-.391-1.8,3.616,3.616,0,0,0-1.037-1.19,5.954,5.954,0,0,0-1.479-.782q-.832-.306-1.717-.578l-1.9-.6a10.994,10.994,0,0,1-1.394-.527,2.313,2.313,0,0,1-.867-.646,1.511,1.511,0,0,1-.289-.952,1.8,1.8,0,0,1,.816-1.6,3.6,3.6,0,0,1,2.04-.544,3.338,3.338,0,0,1,2.329.731,2.689,2.689,0,0,1,.8,2.091h2.856a4.8,4.8,0,0,0-.459-2.108A5.119,5.119,0,0,0,598.493,462a5.6,5.6,0,0,0-1.887-1.071,7.17,7.17,0,0,0-2.346-.374,8.416,8.416,0,0,0-2.244.289,5.714,5.714,0,0,0-1.836.85,4.317,4.317,0,0,0-1.343,5.049,3.417,3.417,0,0,0,.884,1.156,4.755,4.755,0,0,0,1.326.782q.765.306,1.649.578,1.156.408,2.074.663a9.166,9.166,0,0,1,1.547.561,3.01,3.01,0,0,1,.969.7,1.529,1.529,0,0,1,.34,1.037A1.843,1.843,0,0,1,596.793,473.9Z"/><rect class="cls-6" x="420.902" y="504.964" width="2.958" height="15.436"/><path class="cls-6" d="M474.323,499.864a12.331,12.331,0,0,0-2.431,3.978,13.05,13.05,0,0,0-.85,4.658,13.768,13.768,0,0,0,.8,4.658,11.783,11.783,0,0,0,2.363,3.978,11.523,11.523,0,0,0,3.842,2.771,12.431,12.431,0,0,0,5.2,1.037,13.775,13.775,0,0,0,4.437-.663,10.142,10.142,0,0,0,3.383-1.887,9.961,9.961,0,0,0,2.329-2.924,12.2,12.2,0,0,0,1.241-3.74h2.55v-2.788H485.73v2.788h5.61a7.878,7.878,0,0,1-.748,2.5,6.659,6.659,0,0,1-1.547,2.04,7.289,7.289,0,0,1-2.329,1.377,8.784,8.784,0,0,1-3.094.51,9.9,9.9,0,0,1-4.114-.8,8.487,8.487,0,0,1-2.941-2.142,9.114,9.114,0,0,1-1.768-3.094,11.148,11.148,0,0,1-.595-3.621,10.916,10.916,0,0,1,.612-3.621,9.321,9.321,0,0,1,1.785-3.094,9.011,9.011,0,0,1,9.112-2.6,7.666,7.666,0,0,1,2.04.935,5.872,5.872,0,0,1,1.5,1.394,4.928,4.928,0,0,1,.833,1.717h3.128a6.9,6.9,0,0,0-1.037-2.771,8.614,8.614,0,0,0-2.159-2.3,10.559,10.559,0,0,0-3.043-1.547,11.931,11.931,0,0,0-3.723-.561,12.068,12.068,0,0,0-5.083,1.037A11.767,11.767,0,0,0,474.323,499.864Z"/><path class="cls-6" d="M465.42,478.593a3.574,3.574,0,0,1-1.53.289v1.462a7.623,7.623,0,0,0,2.125-.272,3.8,3.8,0,0,0,2.62-2.465,6.875,6.875,0,0,0,.357-2.363,3.783,3.783,0,0,0-.782-2.482,2.55,2.55,0,0,0-2.074-.952,2.288,2.288,0,0,0-1.734.714,2.381,2.381,0,0,0-.68,1.7,2.43,2.43,0,0,0,.629,1.683,2.2,2.2,0,0,0,1.717.7,1.241,1.241,0,0,0,.459-.085.943.943,0,0,0,.323-.187,2.635,2.635,0,0,1-.51,1.5A2.145,2.145,0,0,1,465.42,478.593Z"/><path class="cls-6" d="M485.169,474.632a7.026,7.026,0,0,0,2.431,1.7,8.651,8.651,0,0,0,6.392,0,6.784,6.784,0,0,0,2.4-1.683,7.479,7.479,0,0,0,1.5-2.567,9.67,9.67,0,0,0,.527-3.23V452.6h-3.094v16.252a5.888,5.888,0,0,1-1.19,3.859,4.077,4.077,0,0,1-3.332,1.445,4.2,4.2,0,0,1-3.383-1.462,5.732,5.732,0,0,1-1.241-3.842h-3.094a9.231,9.231,0,0,0,.544,3.213A7.624,7.624,0,0,0,485.169,474.632Z"/><path class="cls-6" d="M420.7,500.782a2.267,2.267,0,0,0,1.666.68,2.381,2.381,0,0,0,1.7-.68,2.212,2.212,0,0,0,.714-1.666,2.438,2.438,0,0,0-2.414-2.414,2.212,2.212,0,0,0-1.666.714,2.381,2.381,0,0,0-.68,1.7A2.267,2.267,0,0,0,420.7,500.782Z"/><path class="cls-6" d="M504.708,460.964v9.112a12.181,12.181,0,0,0,.255,2.72,5.374,5.374,0,0,0,.9,1.972,4.462,4.462,0,0,0,1.853,1.479,6.813,6.813,0,0,0,2.805.527,6.363,6.363,0,0,0,3.349-.85,5.257,5.257,0,0,0,2.091-2.278V476.4h2.958V460.964h-2.958v7.922a7.276,7.276,0,0,1-.272,2.006,5.135,5.135,0,0,1-.816,1.683,3.906,3.906,0,0,1-1.377,1.156,4.254,4.254,0,0,1-1.955.425,3.819,3.819,0,0,1-1.819-.391,3.342,3.342,0,0,1-1.19-1.054,4.431,4.431,0,0,1-.663-1.581,9.2,9.2,0,0,1-.2-2.006v-8.16Z"/><path class="cls-6" d="M521.646,504.964V520.4H524.6v-6.766a7.142,7.142,0,0,1,1.275-4.454,4.548,4.548,0,0,1,3.859-1.666,6.054,6.054,0,0,1,.7.034c.193.023.448.069.765.136v-2.72a3.855,3.855,0,0,0-1.462-.238,5.718,5.718,0,0,0-3.077.9,5.051,5.051,0,0,0-2.057,2.363v-3.026Z"/><path class="cls-6" d="M525.76,460.964V476.4h2.958v-7.956a7.143,7.143,0,0,1,.272-1.972,5.135,5.135,0,0,1,.816-1.683,4.125,4.125,0,0,1,1.36-1.173,4,4,0,0,1,1.938-.442,3.923,3.923,0,0,1,1.836.391,3.3,3.3,0,0,1,1.207,1.054,4.441,4.441,0,0,1,.663,1.6,9.3,9.3,0,0,1,.2,1.989V476.4h2.958v-9.112a11.466,11.466,0,0,0-.272-2.72,5.6,5.6,0,0,0-.918-1.972,4.387,4.387,0,0,0-1.836-1.513,6.686,6.686,0,0,0-2.788-.527,6.344,6.344,0,0,0-3.366.85,5.293,5.293,0,0,0-2.074,2.278v-2.72Z"/><path class="cls-6" d="M503.059,506.868a7.446,7.446,0,0,0-1.479,2.584,9.958,9.958,0,0,0-.51,3.23,10.2,10.2,0,0,0,.476,3.145,7.176,7.176,0,0,0,1.428,2.567,6.807,6.807,0,0,0,2.414,1.734,8.332,8.332,0,0,0,3.4.646,8.125,8.125,0,0,0,2.652-.408,7.206,7.206,0,0,0,2.074-1.088,5.778,5.778,0,0,0,2.176-3.434H512.7a4.036,4.036,0,0,1-1.275,1.717,4.1,4.1,0,0,1-2.635.731,5.365,5.365,0,0,1-2.176-.391,3.951,3.951,0,0,1-1.445-1.054,4.6,4.6,0,0,1-.85-1.53,6.561,6.561,0,0,1-.323-1.853h11.7a9.381,9.381,0,0,0,.119-1.122q.016-.476.017-.816a6.856,6.856,0,0,0-4.335-6.443,7.441,7.441,0,0,0-2.805-.527,8.1,8.1,0,0,0-3.247.612A6.72,6.72,0,0,0,503.059,506.868Zm2.295,1.105a4.68,4.68,0,0,1,3.264-1.139,4.355,4.355,0,0,1,3.111,1.173,4.211,4.211,0,0,1,1.241,3.213h-8.942a4.353,4.353,0,0,1,1.326-3.247Z"/><path class="cls-6" d="M393.149,177.482A54.365,54.365,0,0,1,411.466,164a58.275,58.275,0,0,1,24.768-5.069,52.248,52.248,0,0,1,18.086,3,46.571,46.571,0,0,1,14.285,8.179,45.126,45.126,0,0,1,10.137,12.326,46.813,46.813,0,0,1,5.415,15.437h27.878a76.339,76.339,0,0,0-7.718-24.538,64.539,64.539,0,0,0-15.783-19.814,75.467,75.467,0,0,0-23.846-13.363q-13.94-4.954-31.91-4.954-19.124,0-34.215,7.027a80.431,80.431,0,0,0-25.805,18.778A81.917,81.917,0,0,0,356.4,187.965a91.6,91.6,0,0,0,.23,63.936,79.961,79.961,0,0,0,43.431,45.5q15.667,6.912,35.481,6.912a87.6,87.6,0,0,0,27.648-4.263A76.562,76.562,0,0,0,486,288.189a72.666,72.666,0,0,0,16.589-17.741,67.629,67.629,0,0,0,9.446-21.888h-29.03a39.676,39.676,0,0,1-6.567,12.787,48.607,48.607,0,0,1-10.483,10.138,50.933,50.933,0,0,1-13.017,6.681,42.6,42.6,0,0,1-13.94,2.42,66.432,66.432,0,0,1-26.15-4.839A54.321,54.321,0,0,1,393.725,262.5a57.684,57.684,0,0,1-11.751-19.469,68.073,68.073,0,0,1-4.032-23.5,66.843,66.843,0,0,1,3.917-22.695A59.432,59.432,0,0,1,393.149,177.482Z"/><path class="cls-6" d="M745.622,274.019a25.9,25.9,0,0,1-8.409,4.839,30.6,30.6,0,0,1-10.368,1.728q-13.824,0-22.579-8.525t-8.756-24.423h-26.5a59.315,59.315,0,0,0,4.608,24.077,54.5,54.5,0,0,0,12.212,17.741,51.908,51.908,0,0,0,17.625,11.059,58.952,58.952,0,0,0,21.082,3.8,69.151,69.151,0,0,0,21.312-3.226,51.106,51.106,0,0,0,17.625-9.677,45.775,45.775,0,0,0,11.981-15.9,51.538,51.538,0,0,0,4.378-21.888q0-11.52-5.069-19.584a48.829,48.829,0,0,0-13.133-13.824,84.653,84.653,0,0,0-17.856-9.677q-9.792-3.916-19.238-7.373a74.812,74.812,0,0,1-8.755-3.686,39.131,39.131,0,0,1-7.488-4.839,20.831,20.831,0,0,1-5.3-6.566,18.6,18.6,0,0,1-1.958-8.64q0-10.368,7.142-15.437a28.694,28.694,0,0,1,17.05-5.069q11.289,0,17.741,7.373t6.451,19.354h26.5a51.911,51.911,0,0,0-3.92-20.5,47.888,47.888,0,0,0-10.829-15.9,48.729,48.729,0,0,0-16.358-10.367,55.27,55.27,0,0,0-20.275-3.687,59.073,59.073,0,0,0-19.238,3.111,47.5,47.5,0,0,0-15.9,8.985,44.224,44.224,0,0,0-10.829,14.055,40.336,40.336,0,0,0-4.032,18.086q0,12.212,4.147,20.275a40.868,40.868,0,0,0,11.4,13.709A73.359,73.359,0,0,0,707.03,223.1q9.678,4.032,20.736,7.948,4.147,1.383,8.64,3.341a40.484,40.484,0,0,1,8.3,4.839,23.728,23.728,0,0,1,6.221,7.027,20.309,20.309,0,0,1,2.419,10.368,22.356,22.356,0,0,1-7.719,17.395Z"/><path class="cls-6" d="M610.685,274.019a25.917,25.917,0,0,1-8.41,4.839,30.6,30.6,0,0,1-10.368,1.728q-13.824,0-22.579-8.525t-8.755-24.423h-26.5a59.315,59.315,0,0,0,4.608,24.077A54.5,54.5,0,0,0,550.9,289.456a51.912,51.912,0,0,0,17.626,11.059,58.947,58.947,0,0,0,21.081,3.8,69.121,69.121,0,0,0,21.312-3.226,51.12,51.12,0,0,0,17.626-9.677,45.8,45.8,0,0,0,11.981-15.9,51.553,51.553,0,0,0,4.377-21.888q0-11.52-5.069-19.584A48.814,48.814,0,0,0,626.7,220.221a84.7,84.7,0,0,0-17.856-9.677q-9.792-3.917-19.239-7.373a74.812,74.812,0,0,1-8.755-3.686,39.1,39.1,0,0,1-7.488-4.839,20.831,20.831,0,0,1-5.3-6.566,18.584,18.584,0,0,1-1.959-8.64q0-10.368,7.143-15.437a28.693,28.693,0,0,1,17.049-5.069q11.291,0,17.741,7.373t6.451,19.354h26.5a51.935,51.935,0,0,0-3.916-20.506,47.9,47.9,0,0,0-10.829-15.9,48.708,48.708,0,0,0-16.359-10.367A55.255,55.255,0,0,0,589.6,135.2a59.073,59.073,0,0,0-19.238,3.111,47.52,47.52,0,0,0-15.9,8.985,44.224,44.224,0,0,0-10.829,14.055,40.336,40.336,0,0,0-4.032,18.086q0,12.212,4.148,20.275a40.856,40.856,0,0,0,11.4,13.709,73.411,73.411,0,0,0,16.935,9.677q9.677,4.032,20.736,7.948,4.147,1.383,8.64,3.341a40.44,40.44,0,0,1,8.294,4.839,23.728,23.728,0,0,1,6.221,7.027,20.307,20.307,0,0,1,2.419,10.368,22.352,22.352,0,0,1-7.718,17.4Z"/><path class="cls-7" d="M915.014,442.3H933v5.562h-4.158c-1.675,8.478-7.939,14.31-18.415,14.31-12.366,0-19.44-9.558-19.44-19.819s7.506-19.818,19.44-19.818c8.91,0,15.5,5.562,16.093,12.258h-6.265c-.647-3.726-4.59-6.7-9.828-6.7-8.1,0-13.067,6.858-13.067,14.256s4.536,14.257,13.877,14.257c6.426,0,10.26-4.1,11.016-8.748h-7.235Z"/><path class="cls-7" d="M942.175,450.453c.27,3.619,1.836,6.535,6.75,6.535,3.349,0,4.644-1.513,5.347-3.294h5.939c-.7,4.319-4.859,8.208-11.286,8.208-8.478,0-12.582-5.832-12.582-13.23,0-7.56,4.482-13.231,12.42-13.231a11.347,11.347,0,0,1,11.661,11.023c0,.105,0,.211,0,.317a20.521,20.521,0,0,1-.271,3.672Zm0-4.374H954.7a5.811,5.811,0,0,0-5.39-6.2,6.005,6.005,0,0,0-.71-.006C944.983,439.869,942.175,441.975,942.175,446.079Z"/><path class="cls-7" d="M980.731,461.254a28.46,28.46,0,0,1-4.374.324c-2.863,0-8.155-.379-8.155-8.857V441h-4.265v-4.914H968.2v-7.614h5.887v7.614h5.777V441h-5.777v10.368c0,4.374,1.35,4.914,3.672,4.914a22.522,22.522,0,0,0,2.97-.215Z"/><path class="cls-7" d="M1005.192,429.015h-9.341v-5.562H1020.8v5.562h-9.4v32.239h-6.21Z"/><path class="cls-7" d="M1028.2,422.535a4.347,4.347,0,1,1-4.32,4.374A4.347,4.347,0,0,1,1028.2,422.535Zm-2.916,13.554h5.886v25.165h-5.886Z"/><path class="cls-7" d="M1055.844,445.269c-.324-2.754-1.944-4.59-5.94-4.59-4.536,0-6.751,3.727-6.751,7.993,0,4.319,2.053,7.992,7.129,7.992,3.456,0,4.86-1.512,5.617-4.05h5.885c-.81,5.238-4.644,9.288-11.934,9.288-8.208,0-12.582-6.372-12.582-13.23,0-6.805,4.374-13.231,12.528-13.231,8.208,0,11.557,4.968,11.935,9.828Z"/><path class="cls-7" d="M1079.874,448.672l10.476,12.582h-7.344l-9.234-11.071v11.071h-5.886v-37.8h5.886v23.761l9.234-11.125h7.344Z"/><path class="cls-7" d="M1097.532,450.453c.27,3.619,1.836,6.535,6.75,6.535,3.348,0,4.644-1.513,5.346-3.294h5.94c-.7,4.319-4.86,8.208-11.286,8.208-8.478,0-12.582-5.832-12.582-13.23,0-7.56,4.482-13.231,12.42-13.231a11.345,11.345,0,0,1,11.659,11.024c0,.105.005.211.005.316a20.808,20.808,0,0,1-.269,3.672Zm0-4.374h12.529a5.811,5.811,0,0,0-5.39-6.2,6.005,6.005,0,0,0-.71-.006C1100.34,439.869,1097.532,441.975,1097.532,446.079Z"/><path class="cls-7" d="M1136.088,461.254a28.483,28.483,0,0,1-4.375.324c-2.861,0-8.153-.379-8.153-8.857V441h-4.267v-4.914h4.267v-7.614h5.885v7.614h5.779V441h-5.779v10.368c0,4.374,1.35,4.914,3.672,4.914a22.537,22.537,0,0,0,2.971-.215Z"/><path class="cls-7" d="M1159.416,454.234c0,5.237-4.536,7.668-10.045,7.668-5.4,0-10.26-3.186-10.26-9.126h5.724c0,3.294,2.053,4.482,4.86,4.482,2.323,0,4.105-.756,4.105-2.916,0-2.376-2.538-2.539-7.83-4.59-3.511-1.35-5.994-2.647-5.994-7.021,0-4.752,4.319-7.29,9.45-7.29,5.346,0,9.611,3.618,9.611,8.532h-5.723c0-2.376-1.189-3.888-4.05-3.888-2,0-3.618.972-3.618,2.755,0,2.159,2.322,2.429,6.912,4.212C1156.067,448.4,1159.416,449.643,1159.416,454.234Z"/><path class="cls-7" d="M914.636,515.145V488.253h6.21v37.8h-6.8l-14.958-26.892v26.892h-6.21v-37.8h6.8Z"/><path class="cls-7" d="M926.839,513.471a13.284,13.284,0,1,1,13.338,13.23h-.109a12.914,12.914,0,0,1-13.229-12.589C926.834,513.9,926.834,513.685,926.839,513.471Zm20.682,0c0-4.32-2.916-7.992-7.453-7.992-4.427,0-7.343,3.672-7.343,7.992s2.916,7.993,7.343,7.993C944.605,521.464,947.521,517.791,947.521,513.471Z"/><path class="cls-7" d="M975.816,507.261l-6.642,18.792h-3.942l-9.774-25.164h6.317l5.455,15.93,5.67-15.93h5.778l5.671,15.93,5.454-15.93h6.317l-9.773,25.164H982.4Z"/><path class="cls-7" d="M1047.96,507.153l-12.636,11.664-3.24-3.51,6.48-5.778h-28.405v-4.806h28.3L1032.084,499l3.24-3.51Z"/></svg>