<svg enable-background="new 0 0 240 240" viewBox="0 0 240 240" xmlns="http://www.w3.org/2000/svg"><g fill="#fff"><path d="m196.511 108.296c0-10.52-5.773-17.577-14.241-17.577-6.159 0-10.907 2.822-17.449 10.65l2.436-10.778-14.112 2.566c-3.535 8.652-10.081 20.539-18.315 29.738-7.261 7.896-11.989 12.859-16.845 12.859-3.465 0-5.774-3.593-5.774-9.109 0-9.24 10.521-50.422 13.471-60.558l2.952-10.651c0-.767-.514-.896-1.668-.896l-8.981 1.024c-5.517.514-5.646.514-6.801 3.98-5.131 15.009-8.98 30.276-13.214 45.547-3.208 11.418-10.65 30.919-19.759 30.919-3.466 0-5.517-2.694-5.517-6.927 0-4.747 2.693-12.574 5.131-19.376 5.39-15.012 7.442-24.248 7.442-32.589 0-13.47-7.314-22.579-18.091-22.579-13.728 0-27.457 16.036-27.457 31.947 0 5.903 3.721 11.803 7.185 11.803 3.079 0 7.697-5.388 7.697-8.082 0-.643-.384-1.284-1.539-2.31-2.822-2.565-4.235-5.774-4.235-9.496 0-8.466 7.57-18.09 14.242-18.09 4.363 0 7.313 3.849 7.313 9.752 0 5.644-3.72 16.935-6.415 24.76-5.516 15.654-7.698 24.635-7.698 31.306 0 11.675 5.901 19.117 15.012 19.117 12.574 0 20.4-12.574 24.891-21.04-.128 7.311.641 10.904 3.079 14.625 2.565 3.849 6.928 6.415 11.162 6.415 7.056 0 14.754-4.874 24.507-15.269h.004c2.951-2.822 4.618-4.744 8.853-10.391 1.154-1.411 1.54-1.924 2.31-2.95-5.26 23.221-7.955 37.59-11.292 59.403l15.911-2.822c1.154-10.008 2.694-17.963 5.772-31.82 3.465 2.825 4.877 3.849 9.753 3.849 15.14.001 30.28-18.473 30.28-36.95zm-38.876 26.558 3.847-16.294c2.056-8.726 3.21-11.291 5.775-13.985 2.183-2.181 4.492-3.465 6.544-3.465 4.234 0 7.057 4.364 7.057 10.779 0 10.135-6.415 28.353-16.037 28.353-2.823 0-4.748-1.41-7.186-5.388z"/><path d="m56.501 156.591v15.794h4.295v-5.826l1.633.028c1.656.049 2.285-.226 2.285-1.733 0-.453-.051-1.029-.152-1.732h-3.766v-3.116l2.16.027c1.733.024 2.234-.404 2.234-1.834 0-.428-.025-1.057-.125-1.608z"/><path d="m80.128 161.361c0-2.964-1.306-4.77-5.122-4.77h-5.55v15.794h4.244v-5.9c.101.025.126.025.201.025.101 0 .15.024.252 0l1.279 4.269c.378 1.279.854 1.832 2.336 1.832 1.029 0 2.286-.352 2.813-.65l-2.664-6.405c1.03-.504 2.211-2.035 2.211-4.195zm-4.821 2.435c-.301.153-.729.176-1.005.176-.275 0-.527-.024-.602-.049v-4.07c.101-.024.527-.024.652-.024 1.206 0 1.533.626 1.533 2.007-.001.857-.252 1.584-.578 1.96z"/><path d="m91.036 156.338c-5.425 0-6.83 3.416-6.83 8.088 0 4.769 1.608 8.21 5.575 8.21 5.725 0 6.88-3.966 6.88-8.586 0-4.999-1.783-7.712-5.625-7.712zm.679 12.08c-.277.251-.754.4-1.231.4-1.281 0-1.757-1.356-1.757-4.369 0-2.108.351-3.517.502-3.994.252-.198.728-.351 1.18-.351 1.307 0 1.732 1.332 1.732 4.345-.001 2.011-.251 3.493-.426 3.969z"/><path d="m109.144 166.558h-.275l-2.161-9.967h-5.449v15.794h3.514v-9.816h.277l1.583 7.28c.324 2.06.828 2.787 2.762 2.787 1.179 0 2.46-.199 3.414-.477v-15.568h-3.691z"/><path d="m119.162 156.591c-1.658 0-2.211.251-2.211 1.709 0 .477.05 1.228.176 1.882l2.686-.125v12.328h4.295v-12.352l1.255.024c1.306.102 1.807-.375 1.807-1.885 0-.476-.024-1.078-.125-1.58h-7.883z"/><path d="m171.425 168.519c-.302.175-.729.3-1.156.3-.779 0-1.13-.3-1.13-1.405v-8.339c0-2.258-.327-2.584-1.985-2.584-.852 0-1.706.1-2.36.276v10.697c0 3.718 1.281 5.173 5.074 5.173 2.686 0 4.618-.805 5.824-1.507v-14.538h-4.267z"/><path d="m185.879 164.224c0 .476.1 1.004.226 1.457h1.357v3.163c-.128.052-.353.076-.529.076-1.481 0-2.236-1.231-2.236-4.62 0-1.405.252-3.013.604-3.918.125-.075.877-.327 1.682-.327 1.255 0 1.984.377 2.663.377 1.128 0 1.355-1.08 1.38-3.239-.703-.428-2.034-.856-3.968-.856-4.621 0-6.805 2.462-6.805 7.962 0 5.374 1.582 8.336 6.203 8.336 2.133 0 3.767-.602 4.697-1.256v-9.013h-3.29c-1.507.001-1.984.5-1.984 1.858z"/></g></svg>